<?xml version="1.0" standalone="no"?>
<!DOCTYPE svg PUBLIC "-//W3C//DTD SVG 20010904//EN"
 "http://www.w3.org/TR/2001/REC-SVG-20010904/DTD/svg10.dtd">
<svg version="1.0" xmlns="http://www.w3.org/2000/svg"
 width="690.000000pt" height="597.000000pt" viewBox="0 0 690.000000 597.000000"
 preserveAspectRatio="xMidYMid meet">

	<g transform="translate(0.000000,597.000000) scale(0.100000,-0.100000)"
	fill="#000000" stroke="none">
		<path d="M303 5723 c-10 -4 -13 -561 -13 -2739 l0 -2734 3154 0 c2867 0 3154
1 3160 16 3 9 6 1239 6 2734 l0 2718 -22 6 c-28 7 -6268 7 -6285 -1z m6195
-2734 l2 -2627 -22 -6 c-42 -11 -6048 -7 -6069 4 -19 11 -19 51 -19 2629 0
1440 3 2621 7 2624 3 4 1377 6 3052 5 l3046 -3 3 -2626z"/>
		<path d="M2605 5133 c-11 -3 -35 -16 -53 -30 -66 -50 -62 42 -62 -1297 0
-1194 0 -1215 20 -1249 45 -75 151 -99 226 -51 80 52 74 -44 77 1194 l2 1105
410 3 c284 2 427 0 465 -8 238 -51 413 -242 439 -480 23 -208 -57 -391 -226
-522 -75 -58 -221 -107 -318 -108 -96 -1 -165 -61 -173 -152 -3 -44 0 -59 20
-87 45 -66 68 -76 181 -76 120 0 191 15 307 65 108 46 183 95 266 172 120 113
215 272 253 427 29 119 29 305 0 422 -73 287 -287 525 -563 626 -126 46 -124
46 -701 49 -302 1 -559 0 -570 -3z"/>
		<path d="M5000 1661 c0 -272 1 -282 23 -333 32 -72 112 -143 184 -164 30 -9
61 -13 69 -10 27 10 9 30 -36 39 -52 11 -107 44 -144 87 -49 59 -56 90 -56
251 0 148 0 149 24 155 13 3 32 5 42 4 38 -4 56 0 52 13 -3 7 -28 14 -59 17
l-54 5 -5 105 c-4 89 -8 105 -22 108 -17 3 -18 -15 -18 -277z"/>
		<path d="M5420 1880 c0 -53 2 -61 18 -58 14 3 17 14 17 58 0 44 -3 55 -17 58
-16 3 -18 -5 -18 -58z"/>
		<path d="M1039 1700 c-61 -32 -122 -93 -147 -149 -24 -52 -25 -606 -2 -606 13
0 16 41 20 290 l5 290 26 40 c57 86 131 129 224 129 148 0 264 -124 253 -269
-6 -69 -26 -115 -72 -163 -58 -62 -133 -83 -255 -70 -34 4 -38 -20 -6 -32 86
-33 226 9 297 88 54 60 70 104 70 192 0 88 -14 127 -71 192 -88 99 -227 127
-342 68z"/>
		<path d="M1783 1711 c-84 -39 -142 -100 -170 -180 -19 -54 -18 -371 1 -371 23
0 26 24 26 188 0 131 3 164 19 197 35 76 110 134 194 149 23 4 37 13 37 21 0
21 -56 19 -107 -4z"/>
		<path d="M2135 1702 c-91 -44 -141 -107 -165 -209 -32 -136 70 -295 213 -334
85 -23 218 11 271 70 17 19 17 21 2 27 -10 4 -26 -1 -39 -13 -44 -38 -78 -48
-166 -48 -81 0 -89 2 -134 33 -138 96 -155 270 -39 387 77 78 188 98 288 51
53 -25 124 -98 124 -128 0 -17 -12 -18 -172 -18 -169 0 -208 -6 -194 -29 5 -7
71 -11 207 -11 226 0 224 -1 191 73 -47 106 -140 169 -257 175 -61 3 -78 -1
-130 -26z"/>
		<path d="M2825 1706 c-27 -13 -66 -38 -86 -57 -42 -39 -75 -97 -62 -110 4 -4
62 -31 128 -59 66 -28 134 -57 150 -64 17 -8 55 -25 85 -39 30 -13 65 -27 77
-31 45 -14 47 -32 7 -75 -53 -60 -94 -76 -189 -76 -69 0 -86 4 -127 28 -26 15
-63 48 -82 72 -27 36 -36 42 -45 31 -8 -10 -4 -22 18 -52 39 -54 58 -69 116
-94 108 -47 224 -32 305 38 36 30 90 101 90 117 0 5 -144 75 -155 75 -2 0 -28
11 -57 24 -29 13 -98 43 -153 67 -102 43 -125 56 -125 68 0 4 16 24 36 45 96
102 264 106 359 8 32 -34 55 -41 55 -18 0 24 -62 78 -118 103 -72 31 -159 31
-227 -1z"/>
		<path d="M3475 1713 c-40 -21 -84 -62 -101 -95 -21 -40 -21 -458 0 -458 12 0
15 37 18 208 3 197 4 209 27 245 56 91 170 109 244 39 52 -49 57 -76 57 -294
0 -155 3 -199 13 -196 9 4 13 60 17 219 4 187 7 217 24 241 50 75 159 94 229
41 58 -45 61 -58 67 -288 4 -178 7 -210 20 -210 13 0 15 31 15 215 l0 215 -31
45 c-78 111 -211 121 -316 23 l-27 -25 -26 26 c-62 62 -164 84 -230 49z"/>
		<path d="M4425 1706 c-62 -28 -116 -81 -147 -144 -32 -65 -33 -178 -1 -242 62
-125 218 -200 337 -160 40 13 44 36 5 33 -127 -12 -188 3 -253 65 -54 52 -76
104 -76 182 0 76 21 130 71 179 122 121 330 89 412 -64 19 -35 23 -60 27 -214
4 -127 8 -176 18 -179 9 -3 12 37 12 175 0 172 -1 181 -26 231 -68 137 -242
201 -379 138z"/>
		<path d="M5795 1701 c-64 -29 -123 -88 -153 -151 -27 -56 -23 -175 8 -234 73
-142 243 -203 381 -137 75 36 114 81 69 81 -11 0 -20 -4 -20 -9 0 -5 -25 -22
-55 -37 -49 -24 -64 -26 -128 -21 -84 6 -122 23 -171 77 -47 53 -66 100 -66
170 0 69 19 117 65 169 80 88 213 106 315 43 79 -49 112 -39 46 14 -85 68
-193 81 -291 35z"/>
		<path d="M5420 1440 c0 -263 1 -281 18 -278 16 3 17 24 17 278 0 254 -1 275
-17 278 -17 3 -18 -15 -18 -278z"/>
	</g>
</svg>
